<mxfile host="app.diagrams.net" agent="Mozilla/5.0 (Windows NT 10.0; Win64; x64) AppleWebKit/537.36 (KHTML, like Gecko) Chrome/127.0.0.0 Safari/537.36 OPR/113.0.0.0 (Edition std-1)" version="24.7.17">
  <diagram name="Strona-1" id="jzicrpEZFnxzwJzOAzO0">
    <mxGraphModel dx="1329" dy="1455" grid="1" gridSize="10" guides="1" tooltips="1" connect="1" arrows="1" fold="1" page="1" pageScale="1" pageWidth="827" pageHeight="1169" math="0" shadow="0">
      <root>
        <mxCell id="0" />
        <mxCell id="1" parent="0" />
        <mxCell id="wNZ7_CtL01pOWSLMKjwJ-1" value="Library" style="rounded=0;whiteSpace=wrap;html=1;" vertex="1" parent="1">
          <mxGeometry x="-627" y="150" width="120" height="60" as="geometry" />
        </mxCell>
        <mxCell id="wNZ7_CtL01pOWSLMKjwJ-2" value="&lt;u&gt;ID&lt;/u&gt;" style="ellipse;whiteSpace=wrap;html=1;" vertex="1" parent="1">
          <mxGeometry x="-827" y="140" width="120" height="80" as="geometry" />
        </mxCell>
        <mxCell id="wNZ7_CtL01pOWSLMKjwJ-5" value="Location" style="ellipse;whiteSpace=wrap;html=1;" vertex="1" parent="1">
          <mxGeometry x="-627" y="20" width="120" height="80" as="geometry" />
        </mxCell>
        <mxCell id="wNZ7_CtL01pOWSLMKjwJ-7" value="Book" style="rounded=0;whiteSpace=wrap;html=1;shadow=0;glass=0;" vertex="1" parent="1">
          <mxGeometry x="-367" y="150" width="120" height="60" as="geometry" />
        </mxCell>
        <mxCell id="wNZ7_CtL01pOWSLMKjwJ-8" value="has" style="rhombus;whiteSpace=wrap;html=1;" vertex="1" parent="1">
          <mxGeometry x="-477" y="140" width="80" height="80" as="geometry" />
        </mxCell>
        <mxCell id="wNZ7_CtL01pOWSLMKjwJ-9" value="" style="endArrow=none;html=1;rounded=0;exitX=0;exitY=0.5;exitDx=0;exitDy=0;entryX=1;entryY=0.5;entryDx=0;entryDy=0;" edge="1" parent="1" source="wNZ7_CtL01pOWSLMKjwJ-1" target="wNZ7_CtL01pOWSLMKjwJ-2">
          <mxGeometry width="50" height="50" relative="1" as="geometry">
            <mxPoint x="-597" y="200" as="sourcePoint" />
            <mxPoint x="-547" y="150" as="targetPoint" />
          </mxGeometry>
        </mxCell>
        <mxCell id="wNZ7_CtL01pOWSLMKjwJ-10" value="" style="endArrow=none;html=1;rounded=0;entryX=0.5;entryY=1;entryDx=0;entryDy=0;" edge="1" parent="1" target="wNZ7_CtL01pOWSLMKjwJ-5">
          <mxGeometry width="50" height="50" relative="1" as="geometry">
            <mxPoint x="-567" y="150" as="sourcePoint" />
            <mxPoint x="-517" y="110" as="targetPoint" />
          </mxGeometry>
        </mxCell>
        <mxCell id="wNZ7_CtL01pOWSLMKjwJ-11" value="" style="endArrow=none;html=1;rounded=0;exitX=1;exitY=0.5;exitDx=0;exitDy=0;" edge="1" parent="1" source="wNZ7_CtL01pOWSLMKjwJ-1">
          <mxGeometry width="50" height="50" relative="1" as="geometry">
            <mxPoint x="-457" y="230" as="sourcePoint" />
            <mxPoint x="-477" y="180" as="targetPoint" />
          </mxGeometry>
        </mxCell>
        <mxCell id="wNZ7_CtL01pOWSLMKjwJ-12" value="" style="endArrow=none;html=1;rounded=0;entryX=0;entryY=0.5;entryDx=0;entryDy=0;" edge="1" parent="1" source="wNZ7_CtL01pOWSLMKjwJ-8" target="wNZ7_CtL01pOWSLMKjwJ-7">
          <mxGeometry width="50" height="50" relative="1" as="geometry">
            <mxPoint x="-407" y="320" as="sourcePoint" />
            <mxPoint x="-357" y="270" as="targetPoint" />
          </mxGeometry>
        </mxCell>
        <mxCell id="wNZ7_CtL01pOWSLMKjwJ-13" value="1" style="text;html=1;align=center;verticalAlign=middle;whiteSpace=wrap;rounded=0;" vertex="1" parent="1">
          <mxGeometry x="-527" y="150" width="60" height="30" as="geometry" />
        </mxCell>
        <mxCell id="wNZ7_CtL01pOWSLMKjwJ-14" value="n" style="text;html=1;align=center;verticalAlign=middle;whiteSpace=wrap;rounded=0;" vertex="1" parent="1">
          <mxGeometry x="-407" y="150" width="60" height="30" as="geometry" />
        </mxCell>
        <mxCell id="wNZ7_CtL01pOWSLMKjwJ-15" value="&lt;u&gt;Copy Number&lt;/u&gt;" style="ellipse;whiteSpace=wrap;html=1;" vertex="1" parent="1">
          <mxGeometry x="-367" y="20" width="120" height="80" as="geometry" />
        </mxCell>
        <mxCell id="wNZ7_CtL01pOWSLMKjwJ-16" value="" style="endArrow=none;html=1;rounded=0;entryX=0.5;entryY=1;entryDx=0;entryDy=0;" edge="1" parent="1" source="wNZ7_CtL01pOWSLMKjwJ-7" target="wNZ7_CtL01pOWSLMKjwJ-15">
          <mxGeometry width="50" height="50" relative="1" as="geometry">
            <mxPoint x="-597" y="200" as="sourcePoint" />
            <mxPoint x="-547" y="150" as="targetPoint" />
          </mxGeometry>
        </mxCell>
        <mxCell id="wNZ7_CtL01pOWSLMKjwJ-17" value="ISBN" style="ellipse;whiteSpace=wrap;html=1;" vertex="1" parent="1">
          <mxGeometry x="-367" y="260" width="120" height="80" as="geometry" />
        </mxCell>
        <mxCell id="wNZ7_CtL01pOWSLMKjwJ-18" value="" style="endArrow=none;html=1;rounded=0;entryX=0.5;entryY=0;entryDx=0;entryDy=0;exitX=0.5;exitY=1;exitDx=0;exitDy=0;" edge="1" parent="1" source="wNZ7_CtL01pOWSLMKjwJ-7" target="wNZ7_CtL01pOWSLMKjwJ-17">
          <mxGeometry width="50" height="50" relative="1" as="geometry">
            <mxPoint x="-297" y="160" as="sourcePoint" />
            <mxPoint x="-297" y="110" as="targetPoint" />
          </mxGeometry>
        </mxCell>
        <mxCell id="wNZ7_CtL01pOWSLMKjwJ-19" value="Year" style="ellipse;whiteSpace=wrap;html=1;" vertex="1" parent="1">
          <mxGeometry x="-220" y="40" width="120" height="80" as="geometry" />
        </mxCell>
        <mxCell id="wNZ7_CtL01pOWSLMKjwJ-20" value="Author" style="ellipse;whiteSpace=wrap;html=1;" vertex="1" parent="1">
          <mxGeometry x="-180" y="170" width="120" height="80" as="geometry" />
        </mxCell>
        <mxCell id="wNZ7_CtL01pOWSLMKjwJ-21" value="Title" style="ellipse;whiteSpace=wrap;html=1;" vertex="1" parent="1">
          <mxGeometry x="-210" y="260" width="120" height="80" as="geometry" />
        </mxCell>
        <mxCell id="wNZ7_CtL01pOWSLMKjwJ-22" value="" style="endArrow=none;html=1;rounded=0;entryX=1;entryY=1;entryDx=0;entryDy=0;exitX=0;exitY=0.5;exitDx=0;exitDy=0;" edge="1" parent="1" source="wNZ7_CtL01pOWSLMKjwJ-21" target="wNZ7_CtL01pOWSLMKjwJ-7">
          <mxGeometry width="50" height="50" relative="1" as="geometry">
            <mxPoint x="-220" y="420" as="sourcePoint" />
            <mxPoint x="-170" y="370" as="targetPoint" />
          </mxGeometry>
        </mxCell>
        <mxCell id="wNZ7_CtL01pOWSLMKjwJ-23" value="" style="endArrow=none;html=1;rounded=0;entryX=1;entryY=0.5;entryDx=0;entryDy=0;exitX=0;exitY=0.5;exitDx=0;exitDy=0;" edge="1" parent="1" source="wNZ7_CtL01pOWSLMKjwJ-20" target="wNZ7_CtL01pOWSLMKjwJ-7">
          <mxGeometry width="50" height="50" relative="1" as="geometry">
            <mxPoint x="-220" y="440" as="sourcePoint" />
            <mxPoint x="-170" y="390" as="targetPoint" />
          </mxGeometry>
        </mxCell>
        <mxCell id="wNZ7_CtL01pOWSLMKjwJ-24" value="" style="endArrow=none;html=1;rounded=0;entryX=1;entryY=0;entryDx=0;entryDy=0;exitX=0;exitY=1;exitDx=0;exitDy=0;" edge="1" parent="1" source="wNZ7_CtL01pOWSLMKjwJ-19" target="wNZ7_CtL01pOWSLMKjwJ-7">
          <mxGeometry width="50" height="50" relative="1" as="geometry">
            <mxPoint x="-190" y="470" as="sourcePoint" />
            <mxPoint x="-140" y="420" as="targetPoint" />
          </mxGeometry>
        </mxCell>
        <mxCell id="wNZ7_CtL01pOWSLMKjwJ-25" value="Publisher" style="rounded=0;whiteSpace=wrap;html=1;" vertex="1" parent="1">
          <mxGeometry x="-587" y="350" width="120" height="60" as="geometry" />
        </mxCell>
        <mxCell id="wNZ7_CtL01pOWSLMKjwJ-26" value="Publishes" style="rhombus;whiteSpace=wrap;html=1;" vertex="1" parent="1">
          <mxGeometry x="-477" y="250" width="80" height="80" as="geometry" />
        </mxCell>
        <mxCell id="wNZ7_CtL01pOWSLMKjwJ-27" value="" style="endArrow=none;html=1;rounded=0;exitX=1;exitY=0;exitDx=0;exitDy=0;entryX=0;entryY=1;entryDx=0;entryDy=0;shape=link;" edge="1" parent="1" source="wNZ7_CtL01pOWSLMKjwJ-25" target="wNZ7_CtL01pOWSLMKjwJ-26">
          <mxGeometry width="50" height="50" relative="1" as="geometry">
            <mxPoint x="-410" y="410" as="sourcePoint" />
            <mxPoint x="-360" y="360" as="targetPoint" />
          </mxGeometry>
        </mxCell>
        <mxCell id="wNZ7_CtL01pOWSLMKjwJ-28" value="" style="endArrow=none;html=1;rounded=0;entryX=0;entryY=1;entryDx=0;entryDy=0;exitX=1;exitY=0;exitDx=0;exitDy=0;" edge="1" parent="1" source="wNZ7_CtL01pOWSLMKjwJ-26" target="wNZ7_CtL01pOWSLMKjwJ-7">
          <mxGeometry width="50" height="50" relative="1" as="geometry">
            <mxPoint x="-410" y="440" as="sourcePoint" />
            <mxPoint x="-360" y="390" as="targetPoint" />
          </mxGeometry>
        </mxCell>
        <mxCell id="wNZ7_CtL01pOWSLMKjwJ-29" value="1" style="text;html=1;align=center;verticalAlign=middle;whiteSpace=wrap;rounded=0;" vertex="1" parent="1">
          <mxGeometry x="-473" y="330" width="60" height="30" as="geometry" />
        </mxCell>
        <mxCell id="wNZ7_CtL01pOWSLMKjwJ-32" value="n" style="text;html=1;align=center;verticalAlign=middle;whiteSpace=wrap;rounded=0;" vertex="1" parent="1">
          <mxGeometry x="-390" y="210" width="60" height="30" as="geometry" />
        </mxCell>
        <mxCell id="wNZ7_CtL01pOWSLMKjwJ-36" style="edgeStyle=orthogonalEdgeStyle;rounded=0;orthogonalLoop=1;jettySize=auto;html=1;entryX=0;entryY=0.5;entryDx=0;entryDy=0;endArrow=none;endFill=0;" edge="1" parent="1" source="wNZ7_CtL01pOWSLMKjwJ-33" target="wNZ7_CtL01pOWSLMKjwJ-25">
          <mxGeometry relative="1" as="geometry" />
        </mxCell>
        <mxCell id="wNZ7_CtL01pOWSLMKjwJ-33" value="&lt;u&gt;Name&lt;/u&gt;" style="ellipse;whiteSpace=wrap;html=1;" vertex="1" parent="1">
          <mxGeometry x="-747" y="340" width="120" height="80" as="geometry" />
        </mxCell>
        <mxCell id="wNZ7_CtL01pOWSLMKjwJ-35" style="edgeStyle=orthogonalEdgeStyle;rounded=0;orthogonalLoop=1;jettySize=auto;html=1;entryX=0;entryY=0;entryDx=0;entryDy=0;endArrow=none;endFill=0;" edge="1" parent="1" source="wNZ7_CtL01pOWSLMKjwJ-34" target="wNZ7_CtL01pOWSLMKjwJ-25">
          <mxGeometry relative="1" as="geometry" />
        </mxCell>
        <mxCell id="wNZ7_CtL01pOWSLMKjwJ-34" value="Location" style="ellipse;whiteSpace=wrap;html=1;" vertex="1" parent="1">
          <mxGeometry x="-690" y="240" width="120" height="80" as="geometry" />
        </mxCell>
        <mxCell id="wNZ7_CtL01pOWSLMKjwJ-37" value="Reader" style="rounded=0;whiteSpace=wrap;html=1;" vertex="1" parent="1">
          <mxGeometry x="-477" y="-110" width="120" height="60" as="geometry" />
        </mxCell>
        <mxCell id="wNZ7_CtL01pOWSLMKjwJ-47" style="edgeStyle=orthogonalEdgeStyle;rounded=0;orthogonalLoop=1;jettySize=auto;html=1;entryX=0;entryY=0.5;entryDx=0;entryDy=0;endArrow=none;endFill=0;" edge="1" parent="1" source="wNZ7_CtL01pOWSLMKjwJ-38" target="wNZ7_CtL01pOWSLMKjwJ-37">
          <mxGeometry relative="1" as="geometry" />
        </mxCell>
        <mxCell id="wNZ7_CtL01pOWSLMKjwJ-38" value="ID" style="ellipse;whiteSpace=wrap;html=1;" vertex="1" parent="1">
          <mxGeometry x="-670" y="-160" width="120" height="80" as="geometry" />
        </mxCell>
        <mxCell id="wNZ7_CtL01pOWSLMKjwJ-45" style="edgeStyle=orthogonalEdgeStyle;rounded=0;orthogonalLoop=1;jettySize=auto;html=1;entryX=0.75;entryY=0;entryDx=0;entryDy=0;endArrow=none;endFill=0;" edge="1" parent="1" source="wNZ7_CtL01pOWSLMKjwJ-39" target="wNZ7_CtL01pOWSLMKjwJ-37">
          <mxGeometry relative="1" as="geometry" />
        </mxCell>
        <mxCell id="wNZ7_CtL01pOWSLMKjwJ-39" value="Family Name" style="ellipse;whiteSpace=wrap;html=1;" vertex="1" parent="1">
          <mxGeometry x="-447" y="-240" width="120" height="80" as="geometry" />
        </mxCell>
        <mxCell id="wNZ7_CtL01pOWSLMKjwJ-44" style="edgeStyle=orthogonalEdgeStyle;rounded=0;orthogonalLoop=1;jettySize=auto;html=1;entryX=1;entryY=0;entryDx=0;entryDy=0;endArrow=none;endFill=0;" edge="1" parent="1" source="wNZ7_CtL01pOWSLMKjwJ-40" target="wNZ7_CtL01pOWSLMKjwJ-37">
          <mxGeometry relative="1" as="geometry" />
        </mxCell>
        <mxCell id="wNZ7_CtL01pOWSLMKjwJ-40" value="First Name" style="ellipse;whiteSpace=wrap;html=1;" vertex="1" parent="1">
          <mxGeometry x="-300" y="-190" width="120" height="80" as="geometry" />
        </mxCell>
        <mxCell id="wNZ7_CtL01pOWSLMKjwJ-46" style="edgeStyle=orthogonalEdgeStyle;rounded=0;orthogonalLoop=1;jettySize=auto;html=1;entryX=0;entryY=0;entryDx=0;entryDy=0;endArrow=none;endFill=0;" edge="1" parent="1" source="wNZ7_CtL01pOWSLMKjwJ-41" target="wNZ7_CtL01pOWSLMKjwJ-37">
          <mxGeometry relative="1" as="geometry" />
        </mxCell>
        <mxCell id="wNZ7_CtL01pOWSLMKjwJ-41" value="City" style="ellipse;whiteSpace=wrap;html=1;" vertex="1" parent="1">
          <mxGeometry x="-567" y="-280" width="120" height="80" as="geometry" />
        </mxCell>
        <mxCell id="wNZ7_CtL01pOWSLMKjwJ-43" style="edgeStyle=orthogonalEdgeStyle;rounded=0;orthogonalLoop=1;jettySize=auto;html=1;entryX=1;entryY=0.5;entryDx=0;entryDy=0;endArrow=none;endFill=0;" edge="1" parent="1" target="wNZ7_CtL01pOWSLMKjwJ-37">
          <mxGeometry relative="1" as="geometry">
            <mxPoint x="-279.9999999999998" y="-59.99999999999977" as="sourcePoint" />
          </mxGeometry>
        </mxCell>
        <mxCell id="wNZ7_CtL01pOWSLMKjwJ-42" value="Profession" style="ellipse;whiteSpace=wrap;html=1;" vertex="1" parent="1">
          <mxGeometry x="-280" y="-100" width="120" height="80" as="geometry" />
        </mxCell>
        <mxCell id="wNZ7_CtL01pOWSLMKjwJ-50" style="edgeStyle=orthogonalEdgeStyle;rounded=0;orthogonalLoop=1;jettySize=auto;html=1;entryX=0.5;entryY=1;entryDx=0;entryDy=0;endArrow=none;endFill=0;" edge="1" parent="1" source="wNZ7_CtL01pOWSLMKjwJ-49" target="wNZ7_CtL01pOWSLMKjwJ-37">
          <mxGeometry relative="1" as="geometry" />
        </mxCell>
        <mxCell id="wNZ7_CtL01pOWSLMKjwJ-51" style="edgeStyle=orthogonalEdgeStyle;rounded=0;orthogonalLoop=1;jettySize=auto;html=1;entryX=0.75;entryY=0;entryDx=0;entryDy=0;endArrow=none;endFill=0;" edge="1" parent="1" source="wNZ7_CtL01pOWSLMKjwJ-49" target="wNZ7_CtL01pOWSLMKjwJ-14">
          <mxGeometry relative="1" as="geometry" />
        </mxCell>
        <mxCell id="wNZ7_CtL01pOWSLMKjwJ-49" value="Borrows" style="rhombus;whiteSpace=wrap;html=1;" vertex="1" parent="1">
          <mxGeometry x="-467" y="20" width="80" height="80" as="geometry" />
        </mxCell>
        <mxCell id="wNZ7_CtL01pOWSLMKjwJ-53" value="m" style="text;html=1;align=center;verticalAlign=middle;whiteSpace=wrap;rounded=0;" vertex="1" parent="1">
          <mxGeometry x="-413" y="-50" width="27" height="30" as="geometry" />
        </mxCell>
        <mxCell id="wNZ7_CtL01pOWSLMKjwJ-55" value="n" style="text;html=1;align=center;verticalAlign=middle;whiteSpace=wrap;rounded=0;" vertex="1" parent="1">
          <mxGeometry x="-367" y="110" width="23" height="30" as="geometry" />
        </mxCell>
        <mxCell id="wNZ7_CtL01pOWSLMKjwJ-58" style="edgeStyle=orthogonalEdgeStyle;rounded=0;orthogonalLoop=1;jettySize=auto;html=1;entryX=0;entryY=0;entryDx=0;entryDy=0;endArrow=none;endFill=0;" edge="1" parent="1" source="wNZ7_CtL01pOWSLMKjwJ-56" target="wNZ7_CtL01pOWSLMKjwJ-49">
          <mxGeometry relative="1" as="geometry" />
        </mxCell>
        <mxCell id="wNZ7_CtL01pOWSLMKjwJ-56" value="Return Date" style="ellipse;whiteSpace=wrap;html=1;" vertex="1" parent="1">
          <mxGeometry x="-557" y="-50" width="77" height="50" as="geometry" />
        </mxCell>
        <mxCell id="wNZ7_CtL01pOWSLMKjwJ-59" style="edgeStyle=orthogonalEdgeStyle;rounded=0;orthogonalLoop=1;jettySize=auto;html=1;entryX=1;entryY=0;entryDx=0;entryDy=0;endArrow=none;endFill=0;" edge="1" parent="1" source="wNZ7_CtL01pOWSLMKjwJ-57" target="wNZ7_CtL01pOWSLMKjwJ-49">
          <mxGeometry relative="1" as="geometry" />
        </mxCell>
        <mxCell id="wNZ7_CtL01pOWSLMKjwJ-57" value="Borrow Date" style="ellipse;whiteSpace=wrap;html=1;" vertex="1" parent="1">
          <mxGeometry x="-394" y="-40" width="77" height="50" as="geometry" />
        </mxCell>
        <mxCell id="wNZ7_CtL01pOWSLMKjwJ-60" value="Book" style="rounded=0;whiteSpace=wrap;html=1;" vertex="1" parent="1">
          <mxGeometry x="-357" y="155" width="100" height="50" as="geometry" />
        </mxCell>
        <mxCell id="wNZ7_CtL01pOWSLMKjwJ-61" value="Publishes" style="rhombus;whiteSpace=wrap;html=1;" vertex="1" parent="1">
          <mxGeometry x="-473" y="255" width="70" height="70" as="geometry" />
        </mxCell>
      </root>
    </mxGraphModel>
  </diagram>
</mxfile>
